<?xml version="1.0" standalone="no"?>
<!DOCTYPE svg PUBLIC "-//W3C//DTD SVG 20010904//EN"
 "http://www.w3.org/TR/2001/REC-SVG-20010904/DTD/svg10.dtd">
<svg version="1.0" xmlns="http://www.w3.org/2000/svg"
 width="285.000000pt" height="285.000000pt" viewBox="0 0 285.000000 285.000000"
 preserveAspectRatio="xMidYMid meet">
<metadata>
Created by potrace 1.11, written by Peter Selinger 2001-2013
</metadata>
<g transform="translate(0.000000,285.000000) scale(0.100000,-0.100000)"
fill="#000000" stroke="none">
<path d="M440 2827 c-264 -78 -438 -306 -438 -576 0 -163 59 -304 177 -422
126 -125 269 -181 446 -175 248 9 460 166 542 402 23 68 27 95 27 194 0 94 -4
127 -22 181 -63 184 -202 325 -379 385 -110 38 -248 42 -353 11z"/>
<path d="M2126 2838 c-58 -11 -158 -55 -218 -96 -247 -170 -327 -509 -185
-777 67 -125 195 -234 334 -282 67 -23 94 -27 193 -27 93 0 127 4 180 22 266
91 426 320 416 596 -12 324 -276 576 -600 573 -39 0 -93 -4 -120 -9z"/>
<path d="M483 1189 c-173 -33 -343 -165 -419 -324 -49 -103 -62 -165 -59 -280
7 -257 154 -459 403 -553 59 -22 82 -25 192 -25 139 0 189 13 304 77 116 65
224 200 266 331 25 80 34 221 19 303 -20 107 -98 245 -182 322 -56 52 -153
108 -227 132 -71 23 -224 32 -297 17z"/>
<path d="M2135 1190 c-211 -42 -392 -207 -458 -415 -23 -73 -30 -218 -15 -297
40 -204 207 -386 413 -451 99 -31 263 -31 356 1 205 70 364 245 407 447 16 75
8 229 -17 305 -58 182 -208 332 -391 392 -70 22 -224 32 -295 18z"/>
</g>
</svg>
